<svg width="18" height="17" viewBox="0 0 18 17" fill="none" xmlns="http://www.w3.org/2000/svg">
<g filter="url(#filter0_d_1_749)">
<path d="M8.64412 0.422576C8.70577 0.23285 8.97418 0.232851 9.03583 0.422576L9.90336 3.09257C9.93093 3.17742 10.01 3.23487 10.0992 3.23487H12.9066C13.1061 3.23487 13.189 3.49014 13.0277 3.6074L10.7564 5.25754C10.6842 5.30998 10.654 5.40293 10.6816 5.48778L11.5491 8.15778C11.6108 8.3475 11.3936 8.50527 11.2323 8.38801L8.96102 6.73786C8.88884 6.68543 8.79111 6.68543 8.71893 6.73786L6.4477 8.38801C6.28631 8.50527 6.06916 8.3475 6.13081 8.15778L6.99834 5.48778C7.02591 5.40293 6.99571 5.30998 6.92353 5.25754L4.6523 3.6074C4.49091 3.49014 4.57385 3.23487 4.77334 3.23487H7.58074C7.66995 3.23487 7.74902 3.17742 7.77659 3.09257L8.64412 0.422576Z" fill="#F1CC4A"/>
</g>
<defs>
<filter id="filter0_d_1_749" x="0.567017" y="0.280281" width="16.5459" height="16.148" filterUnits="userSpaceOnUse" color-interpolation-filters="sRGB">
<feFlood flood-opacity="0" result="BackgroundImageFix"/>
<feColorMatrix in="SourceAlpha" type="matrix" values="0 0 0 0 0 0 0 0 0 0 0 0 0 0 0 0 0 0 127 0" result="hardAlpha"/>
<feOffset dy="4"/>
<feGaussianBlur stdDeviation="2"/>
<feComposite in2="hardAlpha" operator="out"/>
<feColorMatrix type="matrix" values="0 0 0 0 0 0 0 0 0 0 0 0 0 0 0 0 0 0 0.25 0"/>
<feBlend mode="normal" in2="BackgroundImageFix" result="effect1_dropShadow_1_749"/>
<feBlend mode="normal" in="SourceGraphic" in2="effect1_dropShadow_1_749" result="shape"/>
</filter>
</defs>
</svg>
