<svg width="16" height="16" viewBox="0 0 8 8" fill="none" xmlns="http://www.w3.org/2000/svg">
<g clip-path="url(#clip0_1_712)">
<path d="M3.9753 2.42021C3.04963 2.42021 2.30299 3.163 2.30299 4.0839C2.30299 5.00479 3.04963 5.74758 3.9753 5.74758C4.90096 5.74758 5.6476 5.00479 5.6476 4.0839C5.6476 3.163 4.90096 2.42021 3.9753 2.42021ZM3.9753 5.16551C3.37711 5.16551 2.88808 4.68045 2.88808 4.0839C2.88808 3.48734 3.37565 3.00228 3.9753 3.00228C4.57494 3.00228 5.06251 3.48734 5.06251 4.0839C5.06251 4.68045 4.57348 5.16551 3.9753 5.16551ZM6.10606 2.35216C6.10606 2.5679 5.93141 2.7402 5.71601 2.7402C5.49914 2.7402 5.32595 2.56645 5.32595 2.35216C5.32595 2.13786 5.5006 1.96411 5.71601 1.96411C5.93141 1.96411 6.10606 2.13786 6.10606 2.35216ZM7.21366 2.746C7.18891 2.22618 7.06957 1.76574 6.68679 1.38638C6.30546 1.00702 5.84263 0.888285 5.32013 0.862222C4.78161 0.831815 3.16752 0.831815 2.62901 0.862222C2.10796 0.886837 1.64513 1.00557 1.26235 1.38493C0.879567 1.76429 0.761676 2.22474 0.735478 2.74455C0.704914 3.28029 0.704914 4.88606 0.735478 5.4218C0.760221 5.94161 0.879567 6.40205 1.26235 6.78141C1.64513 7.16078 2.10651 7.27951 2.62901 7.30557C3.16752 7.33598 4.78161 7.33598 5.32013 7.30557C5.84263 7.28096 6.30546 7.16222 6.68679 6.78141C7.06811 6.40205 7.18746 5.94161 7.21366 5.4218C7.24422 4.88606 7.24422 3.28174 7.21366 2.746ZM6.51795 5.99663C6.40443 6.28043 6.18466 6.49907 5.89794 6.61345C5.46858 6.78286 4.44977 6.74377 3.9753 6.74377C3.50082 6.74377 2.48055 6.78141 2.05265 6.61345C1.76739 6.50051 1.54762 6.28187 1.43264 5.99663C1.26235 5.56949 1.30165 4.55593 1.30165 4.0839C1.30165 3.61187 1.2638 2.59686 1.43264 2.17116C1.54616 1.88737 1.76593 1.66873 2.05265 1.55434C2.48201 1.38493 3.50082 1.42402 3.9753 1.42402C4.44977 1.42402 5.47004 1.38638 5.89794 1.55434C6.1832 1.66728 6.40297 1.88592 6.51795 2.17116C6.68824 2.59831 6.64894 3.61187 6.64894 4.0839C6.64894 4.55593 6.68824 5.57093 6.51795 5.99663Z" fill="white"/>
</g>
<defs>
<clipPath id="clip0_1_712">
<rect width="6.58976" height="7.41348" fill="white" transform="translate(0.731056 0.378418)"/>
</clipPath>
</defs>
</svg>
