<svg width="16" height="16" viewBox="0 0 9 6" fill="none" xmlns="http://www.w3.org/2000/svg">
<g clip-path="url(#clip0_1_702)">
<path d="M8.10317 0.904643C7.82848 1.02181 7.53713 1.09871 7.23879 1.1328C7.54954 0.953475 7.78815 0.669505 7.9005 0.331157C7.60509 0.499941 7.28189 0.61886 6.94486 0.682775C6.67032 0.401177 6.27922 0.225189 5.84635 0.225189C5.01521 0.225189 4.34135 0.873965 4.34135 1.67415C4.34135 1.78773 4.35467 1.8983 4.38032 2.00438C3.12957 1.94394 2.02066 1.36708 1.27837 0.490427C1.14886 0.704432 1.07464 0.953365 1.07464 1.21888C1.07464 1.7216 1.34035 2.16509 1.74415 2.42495C1.50516 2.41774 1.27143 2.35559 1.06247 2.24369C1.06238 2.24976 1.06238 2.25583 1.06238 2.26192C1.06238 2.96397 1.58113 3.54963 2.26958 3.68274C2.04796 3.74077 1.8155 3.74926 1.58996 3.70757C1.78145 4.28324 2.33726 4.70214 2.99578 4.71387C2.48073 5.10248 1.8318 5.33414 1.12674 5.33414C1.00524 5.33414 0.88547 5.32727 0.767731 5.31389C1.43374 5.72502 2.22479 5.9649 3.07467 5.9649C5.84285 5.9649 7.35656 3.75695 7.35656 1.84219C7.35656 1.77934 7.35513 1.71685 7.3522 1.65472C7.64683 1.44965 7.90113 1.19565 8.10317 0.904643Z" fill="white"/>
</g>
<defs>
<clipPath id="clip0_1_702">
<rect width="7.41348" height="5.76604" fill="white" transform="translate(0.780685 0.202393)"/>
</clipPath>
</defs>
</svg>
