<svg width="10" height="11" viewBox="0 0 10 11" fill="none" xmlns="http://www.w3.org/2000/svg">
<path d="M5.43054 2.89879L5.75454 3.65661C5.77651 3.72251 5.83691 3.76095 5.89732 3.76644L6.72104 3.84332C6.89677 3.8598 6.96266 4.07396 6.83636 4.18928L6.21582 4.73294C6.1664 4.77687 6.14443 4.84277 6.16091 4.90317L6.34213 5.71042C6.38057 5.88066 6.19935 6.01245 6.04559 5.92459L5.33719 5.50174C5.28228 5.4688 5.21089 5.4688 5.15597 5.50174L4.44757 5.92459C4.2993 6.01245 4.11259 5.88066 4.15103 5.71042L4.33225 4.90317C4.34873 4.84277 4.32676 4.77687 4.27734 4.73294L3.6568 4.18928C3.52501 4.07396 3.5964 3.8598 3.77212 3.84332L4.59584 3.76644C4.66174 3.76095 4.71665 3.72251 4.74411 3.6621L5.06811 2.90428C5.13401 2.73954 5.35916 2.73954 5.43054 2.89879Z" stroke="#F0C932" stroke-width="0.549146" stroke-miterlimit="10" stroke-linecap="round" stroke-linejoin="round"/>
<path d="M8.98207 4.50482C8.99626 2.44248 7.33591 0.759122 5.27357 0.744929C3.21123 0.730736 1.52787 2.39109 1.51368 4.45343C1.49948 6.51577 3.15983 8.19913 5.22217 8.21332C7.28451 8.22751 8.96787 6.56716 8.98207 4.50482Z" stroke="#F0C932" stroke-width="0.549146" stroke-miterlimit="10" stroke-linecap="round" stroke-linejoin="round"/>
<path d="M4.73861 8.17608L3.81055 10.51L2.63538 9.16454L0.861633 9.32929L2.03681 6.38586" stroke="#F0C932" stroke-width="0.549146" stroke-miterlimit="10" stroke-linecap="round" stroke-linejoin="round"/>
<path d="M5.74905 8.17608L6.6826 10.51L7.85228 9.16454L9.63152 9.32929L8.45085 6.38586" stroke="#F0C932" stroke-width="0.549146" stroke-miterlimit="10" stroke-linecap="round" stroke-linejoin="round"/>
</svg>
